# Blender 3.3.1
# www.blender.org
o cube.006
v 1.408164 1.325020 -0.777961
v 1.473427 1.325020 -1.534560
v 1.473427 2.084428 -1.534560
v 1.408164 2.084428 -0.777961
v -0.409850 1.325019 -0.934778
v -0.409850 2.084428 -0.934778
v -0.344588 1.325019 -1.691378
v -0.344588 2.084428 -1.691378
vn 0.9963 -0.0000 0.0859
vn -0.0859 -0.0000 0.9963
vn -0.9963 -0.0000 -0.0859
vn 0.0859 -0.0000 -0.9963
vn -0.0000 1.0000 -0.0000
vn -0.0000 -1.0000 -0.0000
vt 0.109375 0.203125
vt 0.765625 0.687500
vt 0.000000 0.203125
vt 0.640625 0.625000
vt 0.062500 0.203125
vt 0.171875 0.203125
vt 0.171875 0.265625
vt 0.640625 0.687500
vt 0.718750 0.265625
vt 0.109375 0.265625
vt 0.765625 0.750000
vt 0.656250 0.265625
vt 0.640625 0.687500
vt 0.234375 0.203125
vt 0.000000 0.328125
vt 0.640625 0.750000
vt 0.234375 0.265625
vt 0.656250 0.390625
vt 0.171875 0.203125
vt 0.765625 0.625000
vt 0.062500 0.328125
vt 0.718750 0.390625
vt 0.171875 0.265625
vt 0.765625 0.687500
s 1
f 2/6/1 4/10/1 1/1/1
f 1/2/2 6/16/2 5/13/2
f 5/14/3 8/23/3 7/19/3
f 7/20/4 3/8/4 2/4/4
f 6/18/5 3/9/5 8/22/5
f 1/3/6 7/21/6 2/5/6
f 2/6/1 3/7/1 4/10/1
f 1/2/2 4/11/2 6/16/2
f 5/14/3 6/17/3 8/23/3
f 7/20/4 8/24/4 3/8/4
f 6/18/5 4/12/5 3/9/5
f 1/3/6 5/15/6 7/21/6
o cube.007
v 2.318803 1.344005 -0.718467
v 2.380803 1.344005 -1.437236
v 2.380802 2.065444 -1.437236
v 2.318803 2.065444 -0.718467
v 1.409796 1.344005 -0.796876
v 1.409796 2.065443 -0.796876
v 1.471795 1.344005 -1.515645
v 1.471795 2.065443 -1.515645
vn 0.9963 -0.0000 0.0859
vn -0.0859 -0.0000 0.9963
vn -0.9963 -0.0000 -0.0859
vn 0.0859 -0.0000 -0.9963
vn -0.0000 1.0000 -0.0000
vn -0.0000 -1.0000 -0.0000
vt 0.234375 0.203125
vt 0.359375 0.203125
vt 0.656250 0.203125
vt 0.421875 0.203125
vt 0.718750 0.203125
vt 0.296875 0.203125
vt 0.296875 0.265625
vt 0.421875 0.265625
vt 0.656250 0.203125
vt 0.234375 0.265625
vt 0.359375 0.265625
vt 0.593750 0.203125
vt 0.296875 0.203125
vt 0.421875 0.203125
vt 0.656250 0.265625
vt 0.296875 0.265625
vt 0.421875 0.265625
vt 0.593750 0.265625
vt 0.359375 0.203125
vt 0.484375 0.203125
vt 0.718750 0.265625
vt 0.656250 0.265625
vt 0.359375 0.265625
vt 0.484375 0.265625
s 1
f 10/30/7 12/34/7 9/25/7
f 9/26/8 14/40/8 13/37/8
f 13/38/9 16/47/9 15/43/9
f 15/44/10 11/32/10 10/28/10
f 14/42/11 11/33/11 16/46/11
f 9/27/12 15/45/12 10/29/12
f 10/30/7 11/31/7 12/34/7
f 9/26/8 12/35/8 14/40/8
f 13/38/9 14/41/9 16/47/9
f 15/44/10 16/48/10 11/32/10
f 14/42/11 12/36/11 11/33/11
f 9/27/12 13/39/12 15/45/12
o cube.008
v 1.633785 1.306034 -0.739444
v 1.702310 1.306034 -1.533873
v 1.702310 2.103414 -1.533873
v 1.633785 2.103414 -0.739444
v 1.520159 1.306034 -0.749245
v 1.520159 2.103414 -0.749245
v 1.588684 1.306034 -1.543674
v 1.588684 2.103414 -1.543674
vn 0.9963 -0.0000 0.0859
vn -0.0859 -0.0000 0.9963
vn -0.9963 -0.0000 -0.0859
vn 0.0859 -0.0000 -0.9963
vn -0.0000 1.0000 -0.0000
vn -0.0000 -1.0000 -0.0000
vt 0.718750 0.187500
vt 0.812500 0.093750
vt 0.843750 0.203125
vt 0.812500 0.093750
vt 0.906250 0.203125
vt 0.781250 0.187500
vt 0.781250 0.250000
vt 0.812500 0.156250
vt 0.906250 0.390625
vt 0.718750 0.250000
vt 0.812500 0.156250
vt 0.843750 0.390625
vt 0.796875 0.093750
vt 0.828125 0.843750
vt 0.843750 0.218750
vt 0.796875 0.156250
vt 0.828125 0.906250
vt 0.843750 0.406250
vt 0.765625 0.843750
vt 0.828125 0.093750
vt 0.906250 0.218750
vt 0.906250 0.406250
vt 0.765625 0.906250
vt 0.828125 0.156250
s 1
f 18/54/13 20/58/13 17/49/13
f 17/50/14 22/64/14 21/61/14
f 21/62/15 24/71/15 23/67/15
f 23/68/16 19/56/16 18/52/16
f 22/66/17 19/57/17 24/70/17
f 17/51/18 23/69/18 18/53/18
f 18/54/13 19/55/13 20/58/13
f 17/50/14 20/59/14 22/64/14
f 21/62/15 22/65/15 24/71/15
f 23/68/16 24/72/16 19/56/16
f 22/66/17 20/60/17 19/57/17
f 17/51/18 21/63/18 23/69/18
o cube.009
v 1.716702 2.065444 -1.037183
v 1.733018 2.065444 -1.226333
v 1.733018 2.112906 -1.226333
v 1.716702 2.112906 -1.037183
v 1.489451 2.065443 -1.056785
v 1.489451 2.112906 -1.056785
v 1.505766 2.065443 -1.245935
v 1.505766 2.112906 -1.245935
vn 0.9963 -0.0000 0.0859
vn -0.0859 -0.0000 0.9963
vn -0.9963 -0.0000 -0.0859
vn 0.0859 -0.0000 -0.9963
vn -0.0000 1.0000 -0.0000
vn -0.0000 -1.0000 -0.0000
vt 0.906250 0.093750
vt 0.921875 0.078125
vt 0.078125 0.062500
vt 0.046875 0.062500
vt 0.093750 0.062500
vt 0.921875 0.093750
vt 0.921875 0.109375
vt 0.046875 0.078125
vt 0.078125 0.062500
vt 0.906250 0.109375
vt 0.921875 0.093750
vt 0.062500 0.062500
vt 0.906250 0.078125
vt 0.046875 0.062500
vt 0.078125 0.078125
vt 0.906250 0.093750
vt 0.046875 0.078125
vt 0.062500 0.078125
vt 0.031250 0.062500
vt 0.062500 0.062500
vt 0.093750 0.078125
vt 0.078125 0.078125
vt 0.031250 0.078125
vt 0.062500 0.078125
s 1
f 26/78/19 28/82/19 25/73/19
f 25/74/20 30/88/20 29/85/20
f 29/86/21 32/95/21 31/91/21
f 31/92/22 27/80/22 26/76/22
f 30/90/23 27/81/23 32/94/23
f 25/75/24 31/93/24 26/77/24
f 26/78/19 27/79/19 28/82/19
f 25/74/20 28/83/20 30/88/20
f 29/86/21 30/89/21 32/95/21
f 31/92/22 32/96/22 27/80/22
f 30/90/23 28/84/23 27/81/23
f 25/75/24 29/87/24 31/93/24
o tube.000
v 1.749947 2.073900 -0.759047
v 1.749947 1.335548 -0.759047
v 2.090825 1.335548 -0.729644
v 2.090825 2.073900 -0.729644
v 2.091978 2.060475 -0.743019
v 2.091978 1.348973 -0.743019
v 1.751101 1.348973 -0.772422
v 1.751100 2.060475 -0.772422
v 1.813400 1.335548 -1.494667
v 2.154278 1.335548 -1.465264
v 2.153124 1.348973 -1.451889
v 1.812246 1.348973 -1.481292
v 2.318076 1.335548 -0.710041
v 2.381529 1.335548 -1.445662
v 2.380376 1.348973 -1.432287
v 2.319230 1.348973 -0.723416
v 1.813400 2.073900 -1.494667
v 2.154277 2.073900 -1.465264
v 2.153124 2.060475 -1.451889
v 1.812246 2.060475 -1.481292
v 2.381529 2.073900 -1.445662
v 2.380376 2.060475 -1.432287
v 2.317961 1.868484 -0.708697
v 2.319114 1.881908 -0.722072
v 2.091862 1.881908 -0.741674
v 2.090709 1.868484 -0.728299
v 2.334576 2.061825 -0.901323
v 2.335730 2.075249 -0.914698
v 2.108478 2.075249 -0.934300
v 2.107324 2.061825 -0.920925
vn -0.0859 -0.0000 0.9963
vn 0.0859 -0.0000 -0.9963
vn -0.9963 -0.0000 -0.0859
vn 0.9963 -0.0000 0.0859
vn -0.0000 -1.0000 -0.0000
vn -0.0000 1.0000 -0.0000
vn -0.0608 0.7071 0.7045
vn 0.0002 1.0000 -0.0025
vn -0.0002 -1.0000 0.0025
vn 0.0859 0.0025 -0.9963
vn -0.0859 -0.0025 0.9963
vt 0.703125 0.875000
vt 0.875000 0.826392
vt 0.718750 0.171875
vt 0.920142 0.171875
vt 0.781250 0.273438
vt 0.765625 0.875000
vt 0.875000 0.765625
vt 0.467017 0.125000
vt 0.890625 0.453125
vt 0.765625 0.906250
vt 0.404517 0.125000
vt 0.781250 0.296875
vt 0.046875 0.109375
vt 0.343750 0.125000
vt 0.703125 0.906250
vt 0.718750 0.203125
vt 0.578125 0.079858
vt 0.656250 0.203125
vt 0.344855 0.140625
vt 0.171875 0.187500
vt 0.593750 0.080963
vt 0.593750 0.203125
vt 0.403412 0.140625
vt 0.839806 0.203125
vt 0.875000 0.812500
vt 0.875000 0.454227
vt 0.465912 0.140625
vt 0.593750 0.171875
vt 0.859375 0.766730
vt 0.839806 0.179688
vt 0.859375 0.825287
vt 0.656250 0.171875
vt 0.171875 0.156250
vt 0.919037 0.156250
vt 0.782984 0.226562
vt 0.842016 0.273438
vt 0.406250 0.125000
vt 0.859375 0.437500
vt 0.842016 0.296875
vt 0.782984 0.250000
vt 0.781250 0.203125
vt 0.062500 0.187500
vt 0.875000 0.438605
vt 0.781250 0.179688
vt 0.407355 0.140625
vt 0.062500 0.164062
vt 0.875000 0.501733
vt 0.781250 0.312500
vt 0.919963 0.500000
vt 0.046875 0.125000
vt 0.888892 0.140625
vt 0.842016 0.312500
vt 0.875000 0.562500
vt 0.782984 0.265625
vt 0.062500 0.203125
vt 0.859375 0.561395
vt 0.887787 0.125000
vt 0.781250 0.218750
vt 0.839806 0.218750
vt 0.859375 0.502838
vt 0.918861 0.515625
vt 0.875000 0.828125
vt 0.656250 0.171875
vt 0.843750 0.226562
vt 0.859375 0.498267
vt 0.859375 0.171875
vt 0.578125 0.140625
vt 0.656250 0.203125
vt 0.843750 0.250000
vt 0.875000 0.781250
vt 0.468750 0.125000
vt 0.234375 0.187500
vt 0.593750 0.139520
vt 0.003944 0.187500
vt 0.469852 0.109375
vt 0.921875 0.796875
vt 0.860480 0.156250
vt 0.003944 0.164062
vt 0.875000 0.497162
vt 0.234375 0.156250
vt 0.843750 0.265625
vt 0.453125 0.125000
vt 0.828125 0.140625
vt 0.875000 0.796875
vt 0.829230 0.125000
vt 0.003944 0.203125
vt 0.468750 0.123898
vt 0.921875 0.812500
vt 0.921875 0.187500
vt 0.000000 0.125000
vt 0.876102 0.500000
vt 0.875000 0.515625
vt 0.906250 0.187500
vt 0.921875 0.828125
vt 0.921875 0.812500
vt 0.906250 0.171875
vt 0.875000 0.498088
vt 0.921875 0.171875
vt 0.890625 0.496986
vt 0.000000 0.109375
vt 0.921875 0.156250
vt 0.875000 0.812500
vt 0.468750 0.080037
vt 0.906250 0.156250
vt 0.453125 0.081139
vt 0.921875 0.796875
vt 0.921875 0.781250
vt 0.906250 0.140625
vt 0.512611 0.125000
vt 0.513713 0.109375
vt 0.921875 0.140625
vt 0.875000 0.796875
s 1
f 34/102/25 36/111/25 33/97/25
f 38/118/26 40/128/26 37/114/26
f 39/125/27 33/98/27 40/127/27
f 35/107/28 37/115/28 36/110/28
f 41/132/29 35/108/29 34/101/29
f 43/137/30 39/126/30 38/120/30
f 44/141/27 34/104/27 39/123/27
f 46/149/28 48/156/28 45/143/28
f 49/160/26 42/136/26 41/131/26
f 51/170/25 44/142/25 43/138/25
f 52/175/27 41/134/27 44/139/27
f 53/179/28 47/153/28 46/147/28
f 33/99/30 50/164/30 49/159/30
f 37/116/29 52/176/29 51/168/29
f 40/130/27 49/162/27 52/173/27
f 36/113/28 51/169/28 50/163/28
f 45/144/29 42/135/29 46/148/29
f 47/154/30 38/120/30 48/155/30
f 56/189/31 58/194/31 55/185/31
f 46/150/26 50/165/26 53/177/26
f 60/200/31 62/207/31 59/197/31
f 54/182/25 43/138/25 47/151/25
f 60/201/28 54/183/28 53/178/28
f 60/202/32 50/166/32 61/203/32
f 61/205/27 51/171/27 62/206/27
f 62/208/33 54/184/33 59/198/33
f 55/187/28 48/157/28 56/188/28
f 56/190/34 38/121/34 57/191/34
f 58/195/27 38/122/27 35/105/27
f 58/196/35 45/146/35 55/186/35
f 34/102/25 35/106/25 36/111/25
f 38/118/26 39/124/26 40/128/26
f 39/125/27 34/103/27 33/98/27
f 35/107/28 38/119/28 37/115/28
f 41/132/29 42/135/29 35/108/29
f 43/137/30 44/140/30 39/126/30
f 44/141/27 41/133/27 34/104/27
f 46/149/28 47/152/28 48/156/28
f 49/160/26 50/165/26 42/136/26
f 51/170/25 52/174/25 44/142/25
f 52/175/27 49/161/27 41/134/27
f 53/179/28 54/181/28 47/153/28
f 33/99/30 36/112/30 50/164/30
f 37/116/29 40/129/29 52/176/29
f 40/130/27 33/100/27 49/162/27
f 36/113/28 37/117/28 51/169/28
f 45/144/29 35/108/29 42/135/29
f 47/154/30 43/137/30 38/120/30
f 56/189/31 57/192/31 58/194/31
f 46/150/26 42/136/26 50/165/26
f 60/200/31 61/204/31 62/207/31
f 54/182/25 51/170/25 43/138/25
f 60/201/28 59/199/28 54/183/28
f 60/202/32 53/180/32 50/166/32
f 61/205/27 50/167/27 51/171/27
f 62/208/33 51/172/33 54/184/33
f 55/187/28 45/145/28 48/157/28
f 56/190/34 48/158/34 38/121/34
f 58/195/27 57/193/27 38/122/27
f 58/196/35 35/109/35 45/146/35
o cube.010
v 2.357844 1.334512 -0.905656
v 2.404344 1.334512 -1.444733
v 2.404344 2.074936 -1.444734
v 2.357844 2.074936 -0.905656
v 2.335119 1.334512 -0.907617
v 2.335119 2.074936 -0.907617
v 2.381618 1.334512 -1.446694
v 2.381618 2.074936 -1.446694
vn 0.9963 -0.0000 0.0859
vn -0.0859 -0.0000 0.9963
vn -0.9963 -0.0000 -0.0859
vn 0.0859 -0.0000 -0.9963
vn -0.0000 1.0000 -0.0000
vn -0.0000 -1.0000 -0.0000
vt 0.062500 0.156250
vt 0.656250 0.093750
vt 0.343750 0.109375
vt 0.781250 0.093750
vt 0.390625 0.109375
vt 0.109375 0.156250
vt 0.109375 0.218750
vt 0.781250 0.156250
vt 0.921875 0.765625
vt 0.062500 0.218750
vt 0.656250 0.156250
vt 0.875000 0.765625
vt 0.640625 0.093750
vt 0.828125 0.312500
vt 0.343750 0.125000
vt 0.640625 0.156250
vt 0.828125 0.375000
vt 0.875000 0.781250
vt 0.781250 0.312500
vt 0.796875 0.093750
vt 0.390625 0.125000
vt 0.921875 0.781250
vt 0.781250 0.375000
vt 0.796875 0.156250
s 1
f 64/214/36 66/218/36 63/209/36
f 63/210/37 68/224/37 67/221/37
f 67/222/38 70/231/38 69/227/38
f 69/228/39 65/216/39 64/212/39
f 68/226/40 65/217/40 70/230/40
f 63/211/41 69/229/41 64/213/41
f 64/214/36 65/215/36 66/218/36
f 63/210/37 66/219/37 68/224/37
f 67/222/38 68/225/38 70/231/38
f 69/228/39 70/232/39 65/216/39
f 68/226/40 66/220/40 65/217/40
f 63/211/41 67/223/41 69/229/41
o cube.011
v 2.340713 1.334512 -0.707049
v 2.357844 1.334512 -0.905656
v 2.357844 1.866099 -0.905656
v 2.340713 1.866099 -0.707049
v 2.317987 1.334512 -0.709009
v 2.317987 1.866099 -0.709009
v 2.335119 1.334512 -0.907617
v 2.335119 1.866099 -0.907617
vn 0.9963 -0.0000 0.0859
vn -0.0859 -0.0000 0.9963
vn -0.9963 -0.0000 -0.0859
vn 0.0859 -0.0000 -0.9963
vn -0.0000 1.0000 -0.0000
vn -0.0000 -1.0000 -0.0000
vt 0.046875 0.078125
vt 0.187500 0.078125
vt 0.906250 0.109375
vt 0.875000 0.593750
vt 0.921875 0.109375
vt 0.062500 0.078125
vt 0.062500 0.125000
vt 0.875000 0.640625
vt 0.921875 0.125000
vt 0.046875 0.125000
vt 0.187500 0.125000
vt 0.906250 0.125000
vt 0.171875 0.078125
vt 0.203125 0.078125
vt 0.906250 0.125000
vt 0.171875 0.125000
vt 0.203125 0.125000
vt 0.906250 0.140625
vt 0.187500 0.078125
vt 0.890625 0.593750
vt 0.921875 0.125000
vt 0.921875 0.140625
vt 0.187500 0.125000
vt 0.890625 0.640625
s 1
f 72/238/42 74/242/42 71/233/42
f 71/234/43 76/248/43 75/245/43
f 75/246/44 78/255/44 77/251/44
f 77/252/45 73/240/45 72/236/45
f 76/250/46 73/241/46 78/254/46
f 71/235/47 77/253/47 72/237/47
f 72/238/42 73/239/42 74/242/42
f 71/234/43 74/243/43 76/248/43
f 75/246/44 76/249/44 78/255/44
f 77/252/45 78/256/45 73/240/45
f 76/250/46 74/244/46 73/241/46
f 71/235/47 75/247/47 77/253/47
o cube.012
v 0.109916 1.514872 -1.652173
v 0.111548 1.514872 -1.671088
v 0.111547 1.894576 -1.671088
v 0.109916 1.894576 -1.652173
v -0.117336 1.514872 -1.671775
v -0.117336 1.894576 -1.671776
v -0.115704 1.514872 -1.690691
v -0.115704 1.894576 -1.690691
vn 0.9963 -0.0000 0.0859
vn -0.0859 -0.0000 0.9963
vn -0.9963 -0.0000 -0.0859
vn 0.0859 -0.0000 -0.9963
vn -0.0000 1.0000 -0.0000
vn -0.0000 -1.0000 -0.0000
vt 0.640625 0.578125
vt 0.468750 0.187500
vt 0.875000 0.109375
vt 0.578125 0.078125
vt 0.906250 0.109375
vt 0.640625 0.562500
vt 0.671875 0.562500
vt 0.562500 0.078125
vt 0.843750 0.125000
vt 0.671875 0.578125
vt 0.484375 0.187500
vt 0.875000 0.125000
vt 0.468750 0.203125
vt 0.546875 0.187500
vt 0.875000 0.125000
vt 0.484375 0.203125
vt 0.578125 0.187500
vt 0.875000 0.109375
vt 0.546875 0.203125
vt 0.578125 0.093750
vt 0.906250 0.125000
vt 0.843750 0.109375
vt 0.578125 0.203125
vt 0.562500 0.093750
s 1
f 80/262/48 82/266/48 79/257/48
f 79/258/49 84/272/49 83/269/49
f 83/270/50 86/279/50 85/275/50
f 85/276/51 81/264/51 80/260/51
f 84/274/52 81/265/52 86/278/52
f 79/259/53 85/277/53 80/261/53
f 80/262/48 81/263/48 82/266/48
f 79/258/49 82/267/49 84/272/49
f 83/270/50 84/273/50 86/279/50
f 85/276/51 86/280/51 81/264/51
f 84/274/52 82/268/52 81/265/52
f 79/259/53 83/271/53 85/277/53
