# Blender 3.3.1
# www.blender.org
o cube.014
v 0.433895 -2.472024 -0.099770
v 0.499158 -2.472024 -0.856370
v 0.499157 -0.193798 -0.856370
v 0.433895 -0.193798 -0.099770
v -0.475112 -2.472024 -0.178179
v -0.475112 -0.193798 -0.178179
v -0.409850 -2.472024 -0.934778
v -0.409850 -0.193798 -0.934778
vn 0.9963 -0.0000 0.0859
vn -0.0859 -0.0000 0.9963
vn -0.9963 -0.0000 -0.0859
vn 0.0859 -0.0000 -0.9963
vn -0.0000 1.0000 -0.0000
vn -0.0000 -1.0000 -0.0000
vt 0.562500 0.890625
vt 0.250000 0.500000
vt 0.718750 0.312500
vt 0.375000 0.500000
vt 0.781250 0.312500
vt 0.500000 0.890625
vt 0.500000 0.703125
vt 0.375000 0.312500
vt 0.781250 0.312500
vt 0.562500 0.703125
vt 0.250000 0.312500
vt 0.718750 0.312500
vt 0.312500 0.500000
vt 0.500000 0.703125
vt 0.718750 0.250000
vt 0.312500 0.312500
vt 0.500000 0.515625
vt 0.718750 0.375000
vt 0.562500 0.703125
vt 0.312500 0.500000
vt 0.781250 0.250000
vt 0.781250 0.375000
vt 0.562500 0.515625
vt 0.312500 0.312500
s 1
f 2/6/1 4/10/1 1/1/1
f 1/2/2 6/16/2 5/13/2
f 5/14/3 8/23/3 7/19/3
f 7/20/4 3/8/4 2/4/4
f 6/18/5 3/9/5 8/22/5
f 1/3/6 7/21/6 2/5/6
f 2/6/1 3/7/1 4/10/1
f 1/2/2 4/11/2 6/16/2
f 5/14/3 6/17/3 8/23/3
f 7/20/4 8/24/4 3/8/4
f 6/18/5 4/12/5 3/9/5
f 1/3/6 5/15/6 7/21/6
